<svg width="65" height="91" viewBox="0 0 65 91" fill="none" xmlns="http://www.w3.org/2000/svg">
<rect x="0.1" y="0.1" width="64.8" height="64.8" rx="4.9" fill="white" stroke="#2A0944" stroke-width="0.2"/>
<path d="M41.9903 15.6106H23.1504C22.6984 15.6106 22.332 15.9762 22.332 16.4273V19.3653C22.332 19.8164 22.6984 20.182 23.1504 20.182H41.9903C42.4422 20.182 42.8087 19.8164 42.8087 19.3653V16.4273C42.8087 15.9762 42.4422 15.6106 41.9903 15.6106ZM41.172 18.5485H23.9687V17.2441H41.172V18.5485Z" fill="#2A0944"/>
<path d="M19.3235 25.862H31.0985C31.5504 25.862 31.9168 25.4963 31.9168 25.0452C31.9168 24.5942 31.5504 24.2285 31.0985 24.2285H19.3235C18.8716 24.2285 18.5052 24.5942 18.5052 25.0452C18.5052 25.4963 18.8716 25.862 19.3235 25.862Z" fill="#2A0944"/>
<path d="M34.4346 25.862H35.9065C36.3584 25.862 36.7248 25.4963 36.7248 25.0452C36.7248 24.5942 36.3584 24.2285 35.9065 24.2285H34.4346C33.9827 24.2285 33.6163 24.5942 33.6163 25.0452C33.6163 25.4963 33.9827 25.862 34.4346 25.862Z" fill="#2A0944"/>
<path d="M21.652 43.9124C23.0776 43.9124 24.2374 42.7549 24.2374 41.3321C24.2374 39.9094 23.0776 38.7518 21.652 38.7518C20.2264 38.7518 19.0666 39.9093 19.0666 41.3321C19.0666 42.7549 20.2264 43.9124 21.652 43.9124ZM21.652 40.3853C22.1751 40.3853 22.6007 40.8101 22.6007 41.3321C22.6007 41.8542 22.1751 42.2789 21.652 42.2789C21.1289 42.2789 20.7033 41.8542 20.7033 41.3321C20.7033 40.8101 21.1289 40.3853 21.652 40.3853Z" fill="#2A0944"/>
<path d="M43.429 43.9124C44.8545 43.9124 46.0144 42.7549 46.0144 41.3321C46.0144 39.9094 44.8545 38.7518 43.429 38.7518C42.0034 38.7518 40.8436 39.9093 40.8436 41.3321C40.8436 42.7549 42.0034 43.9124 43.429 43.9124ZM43.429 40.3853C43.9521 40.3853 44.3777 40.8101 44.3777 41.3321C44.3777 41.8542 43.9521 42.2789 43.429 42.2789C42.9059 42.2789 42.4803 41.8542 42.4803 41.3321C42.4803 40.8101 42.9059 40.3853 43.429 40.3853Z" fill="#2A0944"/>
<path d="M52.2626 27.5985H49.7754V17.0782C49.7754 14.8295 47.9424 13 45.6892 13H19.3918C17.1386 13 15.3055 14.8295 15.3055 17.0782V27.5985H12.8183C12.3664 27.5985 12 27.9641 12 28.4152V35.7964C12 36.2475 12.3664 36.6131 12.8183 36.6131H15.3055V46.688C15.3055 47.139 15.6719 47.5047 16.1239 47.5047H16.7582V49.9027C16.7582 51.4061 17.9837 52.629 19.49 52.629H19.9806C21.4869 52.629 22.7124 51.406 22.7124 49.9027V47.5047H42.3687V49.9027C42.3687 51.4061 43.5941 52.629 45.1005 52.629H45.5911C47.0974 52.629 48.3229 51.406 48.3229 49.9027V47.5047H48.9572C49.409 47.5047 49.7755 47.139 49.7755 46.688V36.6131H52.2626C52.7145 36.6131 53.081 36.2475 53.081 35.7964V28.4152C53.081 27.9641 52.7145 27.5985 52.2626 27.5985ZM15.287 34.9797H13.6367V29.2319H15.287V34.9797ZM21.0756 49.9028C21.0756 50.5054 20.5844 50.9957 19.9805 50.9957H19.4899C18.8861 50.9957 18.3948 50.5054 18.3948 49.9028V47.5048H21.0756V49.9028ZM46.6861 49.9028C46.6861 50.5054 46.1948 50.9957 45.591 50.9957H45.1004C44.4965 50.9957 44.0053 50.5054 44.0053 49.9028V47.5048H46.6861V49.9028ZM48.1388 45.8713H16.9422V36.6345H48.1388V45.8713ZM48.1388 35.001H48.1387H44.5364C44.4931 34.9778 44.4474 34.9576 44.3989 34.9421L33.9978 31.6124C33.5673 31.4745 33.1065 31.7111 32.9686 32.1406C32.8306 32.5702 33.0675 33.0301 33.4979 33.1678L39.2244 35.0009H30.8972L20.3584 31.6124C19.9279 31.4745 19.4672 31.711 19.3293 32.1406C19.1912 32.5702 19.4282 33.0301 19.8586 33.1678L25.5851 35.0009H16.9422V22.8261H48.1388V35.001ZM48.1388 21.1927H16.9422V17.0782C16.9422 15.7302 18.0411 14.6335 19.3918 14.6335H45.6893C47.0399 14.6335 48.1388 15.7302 48.1388 17.0782V21.1927ZM51.4443 34.9797H49.7939V29.2319H51.4443V34.9797Z" fill="#2A0944"/>
<path d="M20.973 81V72.4688H23.9613C24.9965 72.4688 25.7816 72.668 26.3168 73.0664C26.8519 73.4609 27.1195 74.041 27.1195 74.8066C27.1195 75.2246 27.0121 75.5938 26.7972 75.9141C26.5824 76.2305 26.2836 76.4629 25.9008 76.6113C26.3383 76.7207 26.682 76.9414 26.932 77.2734C27.1859 77.6055 27.3129 78.0117 27.3129 78.4922C27.3129 79.3125 27.0511 79.9336 26.5277 80.3555C26.0043 80.7773 25.2582 80.9922 24.2894 81H20.973ZM22.7308 77.2852V79.5879H24.2367C24.6508 79.5879 24.973 79.4902 25.2035 79.2949C25.4379 79.0957 25.5551 78.8223 25.5551 78.4746C25.5551 77.6934 25.1508 77.2969 24.3422 77.2852H22.7308ZM22.7308 76.043H24.0316C24.9183 76.0273 25.3617 75.6738 25.3617 74.9824C25.3617 74.5957 25.2484 74.3184 25.0219 74.1504C24.7992 73.9785 24.4457 73.8926 23.9613 73.8926H22.7308V76.043ZM32.7626 80.3555C32.3447 80.8633 31.7665 81.1172 31.0283 81.1172C30.3486 81.1172 29.829 80.9219 29.4697 80.5312C29.1142 80.1406 28.9326 79.5684 28.9247 78.8145V74.6602H30.6181V78.7559C30.6181 79.416 30.9189 79.7461 31.5204 79.7461C32.0947 79.7461 32.4892 79.5469 32.704 79.1484V74.6602H34.4033V81H32.8095L32.7626 80.3555ZM39.5542 79.248C39.5542 79.041 39.4507 78.8789 39.2436 78.7617C39.0405 78.6406 38.7124 78.5332 38.2593 78.4395C36.7515 78.123 35.9976 77.4824 35.9976 76.5176C35.9976 75.9551 36.23 75.4863 36.6948 75.1113C37.1636 74.7324 37.7749 74.543 38.5288 74.543C39.3335 74.543 39.9761 74.7324 40.4565 75.1113C40.9409 75.4902 41.1831 75.9824 41.1831 76.5879H39.4897C39.4897 76.3457 39.4116 76.1465 39.2554 75.9902C39.0991 75.8301 38.855 75.75 38.5229 75.75C38.2378 75.75 38.0171 75.8145 37.8608 75.9434C37.7046 76.0723 37.6265 76.2363 37.6265 76.4355C37.6265 76.623 37.7144 76.7754 37.8901 76.8926C38.0698 77.0059 38.3706 77.1055 38.7925 77.1914C39.2144 77.2734 39.5698 77.3672 39.8589 77.4727C40.7534 77.8008 41.2007 78.3691 41.2007 79.1777C41.2007 79.7559 40.9526 80.2246 40.4565 80.584C39.9604 80.9395 39.3198 81.1172 38.5347 81.1172C38.0034 81.1172 37.5308 81.0234 37.1167 80.8359C36.7065 80.6445 36.3843 80.3848 36.1499 80.0566C35.9155 79.7246 35.7983 79.3672 35.7983 78.9844H37.4038C37.4194 79.2852 37.5308 79.5156 37.7378 79.6758C37.9448 79.8359 38.2222 79.916 38.5698 79.916C38.894 79.916 39.1382 79.8555 39.3022 79.7344C39.4702 79.6094 39.5542 79.4473 39.5542 79.248Z" fill="#2A0944"/>
</svg>
