<svg width="65" height="91" viewBox="0 0 65 91" fill="none" xmlns="http://www.w3.org/2000/svg">
<rect x="0.1" y="0.1" width="64.8" height="64.8" rx="4.9" fill="white" stroke="#909091" stroke-width="0.2"/>
<path d="M18.0586 72.4688L20.25 78.6562L22.4297 72.4688H24.7383V81H22.9746V78.668L23.1504 74.6426L20.8477 81H19.6406L17.3438 74.6484L17.5195 78.668V81H15.7617V72.4688H18.0586ZM29.5201 81.1172C28.5904 81.1172 27.8326 80.832 27.2466 80.2617C26.6646 79.6914 26.3736 78.9316 26.3736 77.9824V77.8184C26.3736 77.1816 26.4966 76.6133 26.7427 76.1133C26.9888 75.6094 27.3365 75.2227 27.7857 74.9531C28.2388 74.6797 28.7545 74.543 29.3326 74.543C30.1998 74.543 30.8814 74.8164 31.3775 75.3633C31.8775 75.9102 32.1275 76.6855 32.1275 77.6895V78.3809H28.0904C28.1451 78.7949 28.3091 79.127 28.5826 79.377C28.8599 79.627 29.2095 79.752 29.6314 79.752C30.2837 79.752 30.7935 79.5156 31.1607 79.043L31.9927 79.9746C31.7388 80.334 31.3951 80.6152 30.9615 80.8184C30.5279 81.0176 30.0474 81.1172 29.5201 81.1172ZM29.3267 75.9141C28.9908 75.9141 28.7173 76.0273 28.5064 76.2539C28.2994 76.4805 28.1666 76.8047 28.108 77.2266H30.4634V77.0918C30.4556 76.7168 30.3541 76.4277 30.1587 76.2246C29.9634 76.0176 29.6861 75.9141 29.3267 75.9141ZM35.5616 73.1016V74.6602H36.6456V75.9023H35.5616V79.0664C35.5616 79.3008 35.6066 79.4688 35.6964 79.5703C35.7862 79.6719 35.9581 79.7227 36.212 79.7227C36.3995 79.7227 36.5655 79.709 36.7101 79.6816V80.9648C36.378 81.0664 36.0362 81.1172 35.6847 81.1172C34.4972 81.1172 33.8917 80.5176 33.8683 79.3184V75.9023H32.9425V74.6602H33.8683V73.1016H35.5616ZM41.5915 76.248C41.361 76.2168 41.1579 76.2012 40.9821 76.2012C40.3415 76.2012 39.9216 76.418 39.7223 76.8516V81H38.029V74.6602H39.6286L39.6755 75.416C40.0153 74.834 40.486 74.543 41.0876 74.543C41.2751 74.543 41.4509 74.5684 41.6149 74.6191L41.5915 76.248ZM42.3772 77.7715C42.3772 77.1426 42.4983 76.582 42.7405 76.0898C42.9827 75.5977 43.3303 75.2168 43.7834 74.9473C44.2405 74.6777 44.7698 74.543 45.3713 74.543C46.2268 74.543 46.9241 74.8047 47.4631 75.3281C48.0061 75.8516 48.3088 76.5625 48.3713 77.4609L48.383 77.8945C48.383 78.8672 48.1116 79.6484 47.5686 80.2383C47.0256 80.8242 46.2971 81.1172 45.383 81.1172C44.469 81.1172 43.7385 80.8242 43.1916 80.2383C42.6487 79.6523 42.3772 78.8555 42.3772 77.8477V77.7715ZM44.0705 77.8945C44.0705 78.4961 44.1838 78.957 44.4104 79.2773C44.637 79.5938 44.9612 79.752 45.383 79.752C45.7932 79.752 46.1135 79.5957 46.344 79.2832C46.5745 78.9668 46.6897 78.4629 46.6897 77.7715C46.6897 77.1816 46.5745 76.7246 46.344 76.4004C46.1135 76.0762 45.7893 75.9141 45.3713 75.9141C44.9573 75.9141 44.637 76.0762 44.4104 76.4004C44.1838 76.7207 44.0705 77.2188 44.0705 77.8945Z" fill="#909091"/>
<path d="M52.3807 51.2868L50.5531 49.4592C50.8477 49.3498 51.0577 49.067 51.0577 48.7346V31.2541C51.0577 26.3784 49.1588 21.7943 45.7113 18.3465C42.2634 14.8989 37.6796 13 32.8037 13C29.1576 13 25.6378 14.0718 22.6247 16.0992C22.2703 16.3379 22.1763 16.8183 22.4147 17.1728C22.6534 17.5273 23.1342 17.6212 23.4887 17.3828C26.2454 15.5277 29.4664 14.5472 32.8037 14.5472C42.0159 14.5472 49.5106 22.0418 49.5106 31.2541V47.961H49.0549L42.9469 41.853C43.6374 41.0779 44.058 40.0578 44.058 38.9406V31.3713C44.058 25.1658 39.0092 20.1169 32.8037 20.1169C26.5981 20.1169 21.5493 25.1658 21.5493 31.3713V38.9406C21.5493 40.0578 21.9699 41.0779 22.6604 41.853L16.5521 47.961H16.0967V31.2541C16.0967 28.1927 16.932 25.1987 18.5121 22.5963C18.7339 22.231 18.6175 21.7554 18.2522 21.5336C17.8869 21.3118 17.4112 21.4281 17.1897 21.7934C15.4625 24.6379 14.5496 27.9096 14.5496 31.2541V48.7346C14.5496 49.067 14.7599 49.3498 15.0542 49.4592L13.2266 51.2868C12.9245 51.589 12.9245 52.0788 13.2266 52.3807C13.3777 52.5318 13.5757 52.6073 13.7736 52.6073C13.9715 52.6073 14.1694 52.5318 14.3205 52.3807L17.193 49.5082H48.414L51.2868 52.3807C51.4379 52.5318 51.6358 52.6073 51.8337 52.6073C52.0317 52.6073 52.2296 52.5318 52.3807 52.3807C52.6828 52.0788 52.6828 51.589 52.3807 51.2868ZM20.2874 46.4138H45.3196L46.8668 47.961H18.7402L20.2874 46.4138ZM25.933 43.3243H39.6743C40.4134 43.3243 41.11 43.1397 41.7213 42.8155L43.7728 44.8667H21.8348L23.886 42.8155C24.4973 43.1397 25.1939 43.3243 25.933 43.3243ZM23.0964 31.3713C23.0964 26.0188 27.4511 21.6641 32.8037 21.6641C38.1562 21.6641 42.5109 26.0188 42.5109 31.3713V38.9406C42.5109 40.5047 41.2384 41.7772 39.6743 41.7772H25.933C24.3689 41.7772 23.0964 40.5047 23.0964 38.9406V31.3713Z" fill="#909091"/>
<path d="M26.615 35.9877H38.9923C39.4196 35.9877 39.7659 35.6414 39.7659 35.2141V31.3713C39.7659 27.5321 36.6425 24.4091 32.8037 24.4091C28.9648 24.4091 25.8414 27.5321 25.8414 31.3713V35.2141C25.8414 35.6414 26.1877 35.9877 26.615 35.9877ZM27.3886 31.3713C27.3886 28.3854 29.8178 25.9562 32.8037 25.9562C35.7895 25.9562 38.2187 28.3854 38.2187 31.3713V34.4408H27.3886V31.3713Z" fill="#909091"/>
<path d="M26.615 39.7658C26.8184 39.7658 27.0181 39.683 27.162 39.5392C27.3058 39.3953 27.3886 39.1956 27.3886 38.9922C27.3886 38.7888 27.3058 38.5891 27.162 38.4453C27.0181 38.3014 26.8184 38.2186 26.615 38.2186C26.4116 38.2186 26.2119 38.3014 26.0681 38.4453C25.9242 38.5894 25.8414 38.7888 25.8414 38.9922C25.8414 39.1956 25.9242 39.3953 26.0681 39.5392C26.2119 39.683 26.4116 39.7658 26.615 39.7658Z" fill="#909091"/>
<path d="M35.7175 38.2186H29.9094C29.4824 38.2186 29.1358 38.5649 29.1358 38.9922C29.1358 39.4195 29.4824 39.7658 29.9094 39.7658H35.7175C36.1445 39.7658 36.4911 39.4195 36.4911 38.9922C36.4911 38.5649 36.1448 38.2186 35.7175 38.2186Z" fill="#909091"/>
<path d="M39.0116 38.2186C38.8083 38.2186 38.6085 38.3014 38.4647 38.4453C38.3208 38.5894 38.238 38.7888 38.238 38.9922C38.238 39.1956 38.3208 39.3953 38.4647 39.5392C38.6085 39.683 38.8083 39.7658 39.0116 39.7658C39.2159 39.7658 39.4147 39.683 39.5586 39.5392C39.703 39.3953 39.7858 39.1956 39.7858 38.9922C39.7858 38.7888 39.703 38.5891 39.5586 38.4453C39.4147 38.3014 39.2159 38.2186 39.0116 38.2186Z" fill="#909091"/>
<path d="M20.0055 20.1208C20.2091 20.1208 20.4077 20.038 20.5524 19.8941C20.6962 19.7503 20.7784 19.5512 20.7784 19.3472C20.7784 19.1438 20.6962 18.9441 20.5524 18.8002C20.4077 18.6564 20.2091 18.5736 20.0055 18.5736C19.8012 18.5736 19.6026 18.6564 19.4579 18.8002C19.3141 18.9441 19.2319 19.1438 19.2319 19.3472C19.2319 19.5506 19.3141 19.7503 19.4579 19.8941C19.6026 20.038 19.8012 20.1208 20.0055 20.1208Z" fill="#909091"/>
<path d="M53.877 17V12.806L52.239 15.929H51.546L49.908 12.806V17H48.666V10.61H49.998L51.888 14.246L53.796 10.61H55.119V17H53.877Z" fill="#909090"/>
<mask id="path-10-inside-1_154_728" fill="white">
<path fill-rule="evenodd" clip-rule="evenodd" d="M46.3298 9.89689L44 12.2267L46.3298 14.5566V17.9686H49.7418L52.2372 20.464L54.7326 17.9686H57.9791V14.7222L60.4745 12.2267L57.9791 9.73132V6.31937H54.5671L52.2372 3.9895L49.9074 6.31937H46.3298V9.89689Z"/>
</mask>
<path d="M44 12.2267L43.2929 11.5196L42.5858 12.2267L43.2929 12.9338L44 12.2267ZM46.3298 9.89689L47.0369 10.604L47.3298 10.3111V9.89689H46.3298ZM46.3298 14.5566H47.3298V14.1424L47.0369 13.8495L46.3298 14.5566ZM46.3298 17.9686H45.3298V18.9686H46.3298V17.9686ZM49.7418 17.9686L50.4489 17.2615L50.1561 16.9686H49.7418V17.9686ZM52.2372 20.464L51.5301 21.1711L52.2372 21.8782L52.9443 21.1711L52.2372 20.464ZM54.7326 17.9686V16.9686H54.3184L54.0255 17.2615L54.7326 17.9686ZM57.9791 17.9686V18.9686H58.9791V17.9686H57.9791ZM57.9791 14.7222L57.2719 14.015L56.9791 14.3079V14.7222H57.9791ZM60.4745 12.2267L61.1816 12.9338L61.8887 12.2267L61.1816 11.5196L60.4745 12.2267ZM57.9791 9.73132H56.9791V10.1455L57.2719 10.4384L57.9791 9.73132ZM57.9791 6.31937H58.9791V5.31937H57.9791V6.31937ZM54.5671 6.31937L53.86 7.02648L54.1529 7.31937H54.5671V6.31937ZM52.2372 3.9895L52.9443 3.2824L52.2372 2.57529L51.5301 3.2824L52.2372 3.9895ZM49.9074 6.31937V7.31937H50.3216L50.6145 7.02648L49.9074 6.31937ZM46.3298 6.31937V5.31937H45.3298V6.31937H46.3298ZM44.7071 12.9338L47.0369 10.604L45.6227 9.18979L43.2929 11.5196L44.7071 12.9338ZM47.0369 13.8495L44.7071 11.5196L43.2929 12.9338L45.6227 15.2637L47.0369 13.8495ZM47.3298 17.9686V14.5566H45.3298V17.9686H47.3298ZM49.7418 16.9686H46.3298V18.9686H49.7418V16.9686ZM52.9443 19.7569L50.4489 17.2615L49.0347 18.6757L51.5301 21.1711L52.9443 19.7569ZM54.0255 17.2615L51.5301 19.7569L52.9443 21.1711L55.4397 18.6757L54.0255 17.2615ZM57.9791 16.9686H54.7326V18.9686H57.9791V16.9686ZM56.9791 14.7222V17.9686H58.9791V14.7222H56.9791ZM59.7674 11.5196L57.2719 14.015L58.6862 15.4293L61.1816 12.9338L59.7674 11.5196ZM57.2719 10.4384L59.7674 12.9338L61.1816 11.5196L58.6862 9.02421L57.2719 10.4384ZM56.9791 6.31937V9.73132H58.9791V6.31937H56.9791ZM54.5671 7.31937H57.9791V5.31937H54.5671V7.31937ZM51.5301 4.69661L53.86 7.02648L55.2742 5.61226L52.9443 3.2824L51.5301 4.69661ZM50.6145 7.02648L52.9443 4.69661L51.5301 3.2824L49.2003 5.61226L50.6145 7.02648ZM46.3298 7.31937H49.9074V5.31937H46.3298V7.31937ZM47.3298 9.89689V6.31937H45.3298V9.89689H47.3298Z" fill="#909090" mask="url(#path-10-inside-1_154_728)"/>
</svg>
