<svg width="65" height="91" viewBox="0 0 65 91" fill="none" xmlns="http://www.w3.org/2000/svg">
<rect x="0.1" y="0.1" width="64.8" height="64.8" rx="4.9" fill="white" stroke="#2A0944" stroke-width="0.2"/>
<path d="M18.4677 14.5229L18.4677 14.5229C16.635 16.5146 16.688 18.4795 16.7043 18.7016V47.3138C16.7043 47.722 17.0352 48.0529 17.4434 48.0529H19.9167V50.4912C19.9167 52.1503 21.2664 53.5 22.9255 53.5C24.5847 53.5 25.9344 52.1503 25.9344 50.4912V48.0529H41.0838V50.4912C41.0838 52.1503 42.4335 53.5 44.0927 53.5C45.7518 53.5 47.1015 52.1503 47.1015 50.4912V48.0529H49.1275C49.2516 48.1475 49.4071 48.204 49.5753 48.204C49.9835 48.204 50.3145 47.8731 50.3145 47.4649V47.3167V47.3167V47.3166V47.3166V47.3166V47.3165V47.3165V47.3165V47.3164V47.3164V47.3164V47.3163V47.3163V47.3163V47.3162V47.3162V47.3162V47.3161V47.3161V47.3161V47.316V47.316V47.316V47.3159V47.3159V47.3159V47.3158V47.3158V47.3158V47.3158V47.3157V47.3157V47.3157V47.3156V47.3156V47.3156V47.3155V47.3155V47.3155V47.3154V47.3154V47.3154V47.3153V47.3153V47.3153V47.3152V47.3152V47.3152V47.3151V47.3151V47.3151V47.3151V47.315V47.315V47.315V47.3149V47.3149V47.3149V47.3148V47.3148V47.3148V47.3147V47.3147V47.3147V47.3146V47.3146V47.3146V47.3145V47.3145V47.3145V47.3144V47.3144V47.3144V47.3143V47.3143V47.3143V47.3142V47.3142V47.3142V47.3141V47.3141V47.3141V47.314V47.314V47.314V47.3139V47.3139V47.3139V47.3139V47.3138V47.3138V47.3138V47.3137V47.3137V47.3137V47.3136V47.3136V47.3136V47.3135V47.3135V47.3135V47.3135V47.3134V47.3134V47.3134V47.3133V47.3133V47.3133V47.3132V47.3132V47.3132V47.3131V47.3131V47.3131V47.3131V47.313V47.313V47.313V47.3129V47.3129V47.3129V47.3128V47.3128V47.3128V47.3127V47.3127V47.3127V47.3127V47.3126V47.3126V47.3126V47.3125V47.3125V47.3125V47.3124V47.3124V47.3124V47.3123V47.3123V47.3123V47.3122V47.3122V47.3122V47.3121V47.3121V47.3121V47.312V47.312V47.312V47.3119V47.3119V47.3119V47.3118V47.3118V47.3118V47.3117V47.3117V47.3117V47.3117V47.3116V47.3116V47.3116V47.3115V47.3115V47.3115V47.3114V47.3114V47.3114V47.3113V47.3113V47.3113V47.3112V47.3112V47.3112V47.3111V47.3111V47.3111V47.3111V47.311V47.311V47.311V47.3109L50.3129 18.743C50.3249 18.5628 50.4139 16.5529 48.528 14.5151C45.8578 11.6294 40.7786 10.2 33.5094 10.2C26.2154 10.2 21.1281 11.6319 18.4677 14.5229ZM19.5866 15.4905L19.5866 15.4905C21.1831 13.7794 24.8982 11.6783 33.5094 11.6783C42.0905 11.6783 45.8079 13.7764 47.4117 15.4856L47.4117 15.4857C48.9212 17.0939 48.8409 18.6003 48.8365 18.6828L48.8365 18.6835L48.8362 18.6835V18.6941V46.5747H18.1825L18.181 18.6531H18.1814L18.1805 18.6396C18.1784 18.6077 18.0833 17.1014 19.5866 15.4905ZM24.4561 50.4912C24.4561 51.335 23.7693 52.0218 22.9255 52.0218C22.0817 52.0218 21.395 51.335 21.395 50.4912V48.0529H24.4561V50.4912ZM45.6233 50.4912C45.6233 51.335 44.9365 52.0218 44.0927 52.0218C43.2489 52.0218 42.5621 51.335 42.5621 50.4912V48.0529H45.6233V50.4912Z" fill="#2A0944" stroke="#2A0944" stroke-width="0.4"/>
<path d="M21.5237 35.2688H45.4945C45.9026 35.2688 46.2336 34.9379 46.2336 34.5297V20.6324C46.2336 20.2242 45.9026 19.8933 45.4945 19.8933H21.5237C21.1155 19.8933 20.7846 20.2242 20.7846 20.6324V34.5297C20.7846 34.9379 21.1155 35.2688 21.5237 35.2688ZM22.2629 21.3715H44.7553V33.7906H22.2629V21.3715Z" fill="#2A0944" stroke="#2A0944" stroke-width="0.4"/>
<path d="M24.9647 37.8504C23.2545 37.8504 21.8634 39.2415 21.8634 40.9517C21.8634 42.6619 23.2545 44.0529 24.9647 44.0529C26.6749 44.0529 28.0659 42.6619 28.0659 40.9517C28.0659 39.2415 26.6749 37.8504 24.9647 37.8504ZM24.9647 42.5746C24.07 42.5746 23.3417 41.8463 23.3417 40.9517C23.3417 40.057 24.07 39.3287 24.9647 39.3287C25.8593 39.3287 26.5876 40.057 26.5876 40.9517C26.5876 41.8463 25.8593 42.5746 24.9647 42.5746Z" fill="#2A0944" stroke="#2A0944" stroke-width="0.4"/>
<path d="M42.0533 37.8504C40.3434 37.8504 38.9523 39.2415 38.9523 40.9517C38.9523 42.6619 40.3434 44.0529 42.0533 44.0529C43.7638 44.0529 45.1548 42.6619 45.1548 40.9517C45.1548 39.2414 43.7638 37.8504 42.0533 37.8504ZM42.0533 42.5746C41.1587 42.5746 40.4306 41.8463 40.4306 40.9517C40.4306 40.057 41.1587 39.3287 42.0533 39.3287C42.9482 39.3287 43.6766 40.0571 43.6766 40.9517C43.6766 41.8463 42.9482 42.5746 42.0533 42.5746Z" fill="#2A0944" stroke="#2A0944" stroke-width="0.4"/>
<path d="M30.5736 18.4139H36.4446C37.7802 18.4139 38.8666 17.3274 38.8666 15.9918C38.8666 14.6562 37.7802 13.5698 36.4446 13.5698H30.5736C29.238 13.5698 28.1516 14.6562 28.1516 15.9918C28.1516 17.3274 29.238 18.4139 30.5736 18.4139ZM30.5736 15.048H36.4446C36.9649 15.048 37.3884 15.4716 37.3884 15.9918C37.3884 16.5121 36.9649 16.9356 36.4446 16.9356H30.5736C30.0534 16.9356 29.6298 16.5121 29.6298 15.9918C29.6298 15.4716 30.0534 15.048 30.5736 15.048Z" fill="#2A0944" stroke="#2A0944" stroke-width="0.4"/>
<path d="M7.15378 72.4688L9.34518 78.6562L11.5249 72.4688H13.8335V81H12.0698V78.668L12.2456 74.6426L9.94284 81H8.73581L6.43893 74.6484L6.61472 78.668V81H4.8569V72.4688H7.15378ZM17.4844 81H15.7852V74.6602H17.4844V81ZM15.6856 73.0195C15.6856 72.7656 15.7696 72.5566 15.9375 72.3926C16.1094 72.2285 16.3418 72.1465 16.6348 72.1465C16.9239 72.1465 17.1543 72.2285 17.3262 72.3926C17.4981 72.5566 17.584 72.7656 17.584 73.0195C17.584 73.2773 17.4961 73.4883 17.3203 73.6523C17.1485 73.8164 16.9199 73.8984 16.6348 73.8984C16.3496 73.8984 16.1192 73.8164 15.9434 73.6523C15.7715 73.4883 15.6856 73.2773 15.6856 73.0195ZM21.9615 79.752C22.274 79.752 22.5279 79.666 22.7232 79.4941C22.9185 79.3223 23.0201 79.0938 23.0279 78.8086H24.6158C24.6119 79.2383 24.4947 79.6328 24.2642 79.9922C24.0338 80.3477 23.7174 80.625 23.315 80.8242C22.9166 81.0195 22.4752 81.1172 21.9908 81.1172C21.0846 81.1172 20.3697 80.8301 19.8463 80.2559C19.3228 79.6777 19.0611 78.8809 19.0611 77.8652V77.7539C19.0611 76.7773 19.3209 75.998 19.8404 75.416C20.36 74.834 21.0728 74.543 21.9791 74.543C22.7721 74.543 23.4068 74.7695 23.8834 75.2227C24.3639 75.6719 24.608 76.2715 24.6158 77.0215H23.0279C23.0201 76.6934 22.9185 76.4277 22.7232 76.2246C22.5279 76.0176 22.2701 75.9141 21.9498 75.9141C21.5553 75.9141 21.2564 76.0586 21.0533 76.3477C20.8541 76.6328 20.7545 77.0977 20.7545 77.7422V77.918C20.7545 78.5703 20.8541 79.0391 21.0533 79.3242C21.2525 79.6094 21.5553 79.752 21.9615 79.752ZM29.5851 76.248C29.3546 76.2168 29.1515 76.2012 28.9757 76.2012C28.3351 76.2012 27.9152 76.418 27.716 76.8516V81H26.0226V74.6602H27.6222L27.6691 75.416C28.0089 74.834 28.4796 74.543 29.0812 74.543C29.2687 74.543 29.4445 74.5684 29.6085 74.6191L29.5851 76.248ZM30.3708 77.7715C30.3708 77.1426 30.4919 76.582 30.7341 76.0898C30.9763 75.5977 31.3239 75.2168 31.7771 74.9473C32.2341 74.6777 32.7634 74.543 33.365 74.543C34.2204 74.543 34.9177 74.8047 35.4567 75.3281C35.9997 75.8516 36.3025 76.5625 36.365 77.4609L36.3767 77.8945C36.3767 78.8672 36.1052 79.6484 35.5622 80.2383C35.0192 80.8242 34.2907 81.1172 33.3767 81.1172C32.4626 81.1172 31.7321 80.8242 31.1853 80.2383C30.6423 79.6523 30.3708 78.8555 30.3708 77.8477V77.7715ZM32.0642 77.8945C32.0642 78.4961 32.1775 78.957 32.404 79.2773C32.6306 79.5938 32.9548 79.752 33.3767 79.752C33.7868 79.752 34.1071 79.5957 34.3376 79.2832C34.5681 78.9668 34.6833 78.4629 34.6833 77.7715C34.6833 77.1816 34.5681 76.7246 34.3376 76.4004C34.1071 76.0762 33.7829 75.9141 33.365 75.9141C32.9509 75.9141 32.6306 76.0762 32.404 76.4004C32.1775 76.7207 32.0642 77.2188 32.0642 77.8945ZM43.5725 77.8887C43.5725 78.9043 43.3557 79.6973 42.9221 80.2676C42.4885 80.834 41.8831 81.1172 41.1057 81.1172C40.4182 81.1172 39.8694 80.8535 39.4592 80.3262L39.3831 81H37.8596V72H39.553V75.2285C39.9436 74.7715 40.4573 74.543 41.094 74.543C41.8675 74.543 42.4729 74.8281 42.9104 75.3984C43.3518 75.9648 43.5725 76.7637 43.5725 77.7949V77.8887ZM41.8792 77.7656C41.8792 77.125 41.7776 76.6582 41.5745 76.3652C41.3714 76.0684 41.0686 75.9199 40.6663 75.9199C40.1272 75.9199 39.7561 76.1406 39.553 76.582V79.084C39.76 79.5293 40.135 79.752 40.678 79.752C41.2249 79.752 41.5842 79.4824 41.7561 78.9434C41.8382 78.6855 41.8792 78.293 41.8792 77.7656ZM48.8582 80.3555C48.4403 80.8633 47.8621 81.1172 47.1239 81.1172C46.4442 81.1172 45.9246 80.9219 45.5653 80.5312C45.2098 80.1406 45.0282 79.5684 45.0203 78.8145V74.6602H46.7137V78.7559C46.7137 79.416 47.0145 79.7461 47.616 79.7461C48.1903 79.7461 48.5848 79.5469 48.7996 79.1484V74.6602H50.4989V81H48.9051L48.8582 80.3555ZM55.6498 79.248C55.6498 79.041 55.5463 78.8789 55.3392 78.7617C55.1361 78.6406 54.808 78.5332 54.3549 78.4395C52.8471 78.123 52.0932 77.4824 52.0932 76.5176C52.0932 75.9551 52.3256 75.4863 52.7904 75.1113C53.2592 74.7324 53.8705 74.543 54.6244 74.543C55.4291 74.543 56.0717 74.7324 56.5521 75.1113C57.0365 75.4902 57.2787 75.9824 57.2787 76.5879H55.5853C55.5853 76.3457 55.5072 76.1465 55.351 75.9902C55.1947 75.8301 54.9506 75.75 54.6185 75.75C54.3334 75.75 54.1127 75.8145 53.9564 75.9434C53.8002 76.0723 53.7221 76.2363 53.7221 76.4355C53.7221 76.623 53.81 76.7754 53.9857 76.8926C54.1654 77.0059 54.4662 77.1055 54.8881 77.1914C55.31 77.2734 55.6654 77.3672 55.9545 77.4727C56.849 77.8008 57.2963 78.3691 57.2963 79.1777C57.2963 79.7559 57.0482 80.2246 56.5521 80.584C56.056 80.9395 55.4154 81.1172 54.6303 81.1172C54.099 81.1172 53.6264 81.0234 53.2123 80.8359C52.8021 80.6445 52.4799 80.3848 52.2455 80.0566C52.0111 79.7246 51.8939 79.3672 51.8939 78.9844H53.4994C53.515 79.2852 53.6264 79.5156 53.8334 79.6758C54.0404 79.8359 54.3178 79.916 54.6654 79.916C54.9896 79.916 55.2338 79.8555 55.3978 79.7344C55.5658 79.6094 55.6498 79.4473 55.6498 79.248Z" fill="#2A0944"/>
</svg>
