<svg width="65" height="91" viewBox="0 0 65 91" fill="none" xmlns="http://www.w3.org/2000/svg">
<rect x="0.1" y="0.1" width="64.8" height="64.8" rx="4.9" fill="white" stroke="#909091" stroke-width="0.2"/>
<g clip-path="url(#clip0_154_734)">
<path d="M46.8438 40.5V25.5C46.8438 18.6075 41.2362 13 34.3438 13H29.6562C22.7638 13 17.1562 18.6075 17.1562 25.5V40.5C17.1562 44.1097 19.0837 47.4337 22.148 49.2472L19.7288 51.6663C19.4238 51.9714 19.4238 52.4661 19.7288 52.7712C20.034 53.0763 20.5286 53.0763 20.8337 52.7712L23.6349 49.9701C24.8049 50.4255 26.0394 50.6562 27.3125 50.6562H36.6875C37.9605 50.6562 39.1951 50.4255 40.3651 49.97L43.1663 52.7712C43.4714 53.0763 43.966 53.0763 44.2712 52.7712C44.5763 52.4661 44.5763 51.9714 44.2712 51.6663L41.852 49.2471C44.9163 47.4337 46.8438 44.1097 46.8438 40.5ZM45.2812 34.6406C45.2812 37.2183 44.1113 39.6497 42.1562 41.2684V38.1562C42.1562 36.2698 43.5004 34.6916 45.2812 34.3286V34.6406ZM21.8438 41.2685C19.8888 39.6498 18.7188 37.2184 18.7188 34.6406V34.3286C20.4996 34.6916 21.8438 36.2698 21.8438 38.1562V41.2685ZM36.6875 49.0938H27.3125C22.5369 49.0938 18.7188 45.2116 18.7188 40.5V40.0424C20.5804 43.006 23.809 44.7969 27.3125 44.7969H28.4844C28.9159 44.7969 29.2656 44.4471 29.2656 44.0156C29.2656 43.5841 28.9159 43.2344 28.4844 43.2344H27.3125C25.9498 43.2344 24.6089 42.9104 23.4062 42.2958V38.1562C23.4062 35.4061 21.3654 33.1245 18.7188 32.7442V25.5C18.7188 19.4691 23.6253 14.5625 29.6562 14.5625H34.3438C40.3747 14.5625 45.2812 19.4691 45.2812 25.5V32.7442C42.6346 33.1245 40.5938 35.4061 40.5938 38.1562V42.2958C39.3913 42.9103 38.0503 43.2344 36.6875 43.2344H35.5156C35.0841 43.2344 34.7344 43.5841 34.7344 44.0156C34.7344 44.4471 35.0841 44.7969 35.5156 44.7969H36.6875C40.0769 44.7969 43.3599 43.1009 45.2812 40.0424V40.5C45.2812 45.2362 41.4441 49.0938 36.6875 49.0938Z" fill="#909090"/>
<path d="M42.8028 24.4367C42.347 22.1556 40.3274 20.5 38.0008 20.5H25.9992C23.6726 20.5 21.653 22.1556 21.1972 24.4366C20.2292 29.2756 23.9331 33.7812 28.8578 33.7812H35.1422C40.077 33.7812 43.7688 29.2658 42.8028 24.4367ZM22.7294 24.743C23.0398 23.1898 24.4149 22.0625 25.9992 22.0625H38.0008C39.5851 22.0625 40.9602 23.1898 41.2706 24.7431C42.045 28.6143 39.0819 32.2188 35.1422 32.2188H28.8578C24.9098 32.2188 21.9566 28.6063 22.7294 24.743Z" fill="#909090"/>
<path d="M32.0001 44.7969C32.4315 44.7969 32.7813 44.4471 32.7813 44.0156C32.7813 43.5842 32.4315 43.2344 32.0001 43.2344C31.5686 43.2344 31.2188 43.5842 31.2188 44.0156C31.2188 44.4471 31.5686 44.7969 32.0001 44.7969Z" fill="#909090"/>
</g>
<path d="M10.0586 72.4688L12.25 78.6562L14.4297 72.4688H16.7383V81H14.9746V78.668L15.1504 74.6426L12.8477 81H11.6406L9.34375 74.6484L9.51953 78.668V81H7.76172V72.4688H10.0586ZM18.3384 77.7715C18.3384 77.1426 18.4595 76.582 18.7017 76.0898C18.9439 75.5977 19.2916 75.2168 19.7447 74.9473C20.2017 74.6777 20.731 74.543 21.3326 74.543C22.188 74.543 22.8853 74.8047 23.4244 75.3281C23.9673 75.8516 24.2701 76.5625 24.3326 77.4609L24.3443 77.8945C24.3443 78.8672 24.0728 79.6484 23.5298 80.2383C22.9869 80.8242 22.2584 81.1172 21.3443 81.1172C20.4302 81.1172 19.6998 80.8242 19.1529 80.2383C18.6099 79.6523 18.3384 78.8555 18.3384 77.8477V77.7715ZM20.0318 77.8945C20.0318 78.4961 20.1451 78.957 20.3716 79.2773C20.5982 79.5938 20.9224 79.752 21.3443 79.752C21.7545 79.752 22.0748 79.5957 22.3052 79.2832C22.5357 78.9668 22.6509 78.4629 22.6509 77.7715C22.6509 77.1816 22.5357 76.7246 22.3052 76.4004C22.0748 76.0762 21.7505 75.9141 21.3326 75.9141C20.9185 75.9141 20.5982 76.0762 20.3716 76.4004C20.1451 76.7207 20.0318 77.2188 20.0318 77.8945ZM27.3859 74.6602L27.4386 75.3926C27.8917 74.8262 28.4991 74.543 29.2609 74.543C29.9327 74.543 30.4327 74.7402 30.7609 75.1348C31.089 75.5293 31.257 76.1191 31.2648 76.9043V81H29.5714V76.9453C29.5714 76.5859 29.4933 76.3262 29.337 76.166C29.1808 76.002 28.921 75.9199 28.5577 75.9199C28.0812 75.9199 27.7237 76.123 27.4855 76.5293V81H25.7921V74.6602H27.3859ZM32.7302 77.7715C32.7302 77.1426 32.8512 76.582 33.0934 76.0898C33.3356 75.5977 33.6833 75.2168 34.1364 74.9473C34.5934 74.6777 35.1227 74.543 35.7243 74.543C36.5798 74.543 37.277 74.8047 37.8161 75.3281C38.3591 75.8516 38.6618 76.5625 38.7243 77.4609L38.736 77.8945C38.736 78.8672 38.4645 79.6484 37.9216 80.2383C37.3786 80.8242 36.6501 81.1172 35.736 81.1172C34.822 81.1172 34.0915 80.8242 33.5446 80.2383C33.0016 79.6523 32.7302 78.8555 32.7302 77.8477V77.7715ZM34.4235 77.8945C34.4235 78.4961 34.5368 78.957 34.7634 79.2773C34.9899 79.5938 35.3141 79.752 35.736 79.752C36.1462 79.752 36.4665 79.5957 36.697 79.2832C36.9274 78.9668 37.0427 78.4629 37.0427 77.7715C37.0427 77.1816 36.9274 76.7246 36.697 76.4004C36.4665 76.0762 36.1423 75.9141 35.7243 75.9141C35.3102 75.9141 34.9899 76.0762 34.7634 76.4004C34.5368 76.7207 34.4235 77.2188 34.4235 77.8945ZM43.7815 76.248C43.551 76.2168 43.3479 76.2012 43.1721 76.2012C42.5315 76.2012 42.1116 76.418 41.9123 76.8516V81H40.219V74.6602H41.8186L41.8655 75.416C42.2053 74.834 42.676 74.543 43.2776 74.543C43.4651 74.543 43.6409 74.5684 43.8049 74.6191L43.7815 76.248ZM48.5398 81C48.4617 80.8477 48.4051 80.6582 48.3699 80.4316C47.9598 80.8887 47.4266 81.1172 46.7703 81.1172C46.1492 81.1172 45.6336 80.9375 45.2234 80.5781C44.8172 80.2188 44.6141 79.7656 44.6141 79.2188C44.6141 78.5469 44.8621 78.0312 45.3582 77.6719C45.8582 77.3125 46.5789 77.1309 47.5203 77.127H48.2996V76.7637C48.2996 76.4707 48.2234 76.2363 48.0711 76.0605C47.9227 75.8848 47.6863 75.7969 47.3621 75.7969C47.077 75.7969 46.8523 75.8652 46.6883 76.002C46.5281 76.1387 46.448 76.3262 46.448 76.5645H44.7547C44.7547 76.1973 44.868 75.8574 45.0945 75.5449C45.3211 75.2324 45.6414 74.9883 46.0555 74.8125C46.4695 74.6328 46.9344 74.543 47.45 74.543C48.2313 74.543 48.8504 74.7402 49.3074 75.1348C49.7684 75.5254 49.9988 76.0762 49.9988 76.7871V79.5352C50.0027 80.1367 50.0867 80.5918 50.2508 80.9004V81H48.5398ZM47.1395 79.8223C47.3895 79.8223 47.6199 79.7676 47.8309 79.6582C48.0418 79.5449 48.198 79.3945 48.2996 79.207V78.1172H47.6668C46.8191 78.1172 46.368 78.4102 46.3133 78.9961L46.3074 79.0957C46.3074 79.3066 46.3816 79.4805 46.5301 79.6172C46.6785 79.7539 46.8816 79.8223 47.1395 79.8223ZM53.5267 81H51.8275V74.6602H53.5267V81ZM51.7279 73.0195C51.7279 72.7656 51.8119 72.5566 51.9798 72.3926C52.1517 72.2285 52.3841 72.1465 52.6771 72.1465C52.9662 72.1465 53.1966 72.2285 53.3685 72.3926C53.5404 72.5566 53.6263 72.7656 53.6263 73.0195C53.6263 73.2773 53.5384 73.4883 53.3627 73.6523C53.1908 73.8164 52.9623 73.8984 52.6771 73.8984C52.392 73.8984 52.1615 73.8164 51.9857 73.6523C51.8138 73.4883 51.7279 73.2773 51.7279 73.0195ZM57.1542 81H55.455V72H57.1542V81Z" fill="#909090"/>
<defs>
<clipPath id="clip0_154_734">
<rect width="40" height="40" fill="white" transform="translate(12 13)"/>
</clipPath>
</defs>
</svg>
