<svg width="65" height="91" viewBox="0 0 65 91" fill="none" xmlns="http://www.w3.org/2000/svg">
<rect x="0.1" y="0.1" width="64.8" height="64.8" rx="4.9" fill="white" stroke="#2A0944" stroke-width="0.2"/>
<g clip-path="url(#clip0_154_689)">
<path d="M33.0047 45.9412C32.8562 45.793 32.6502 45.7078 32.4402 45.7078C32.2302 45.7078 32.0242 45.793 31.8757 45.9412C31.7272 46.0895 31.6418 46.2951 31.6418 46.5046C31.6418 46.7142 31.7271 46.9198 31.8757 47.068C32.0243 47.2163 32.2302 47.3015 32.4402 47.3015C32.6502 47.3015 32.8562 47.2163 33.0047 47.068C33.1532 46.9198 33.2387 46.7142 33.2387 46.5046C33.2387 46.2951 33.1532 46.0895 33.0047 45.9412Z" fill="#2A0944"/>
<path d="M37.4563 37.236H27.4242C26.2277 37.236 25.2542 38.2076 25.2542 39.4017V40.4891C25.2542 41.6832 26.2276 42.6548 27.4242 42.6548H37.4563C38.6529 42.6548 39.6263 41.6833 39.6263 40.4891V39.4017C39.6263 38.2076 38.6529 37.236 37.4563 37.236ZM28.448 41.061H27.4242C27.1082 41.061 26.8511 40.8044 26.8511 40.4891V39.4017C26.8511 39.0863 27.1082 38.8298 27.4242 38.8298H28.448V41.061ZM31.6418 41.061H30.0449V38.8298H31.6418V41.061ZM34.8356 41.061H33.2387V38.8298H34.8356V41.061ZM38.0294 40.489C38.0294 40.8044 37.7723 41.0609 37.4563 41.0609H36.4325V38.8297H37.4563C37.7723 38.8297 38.0294 39.0863 38.0294 39.4016V40.489Z" fill="#2A0944"/>
<path d="M32.3651 26.5875C32.2167 26.4393 32.0107 26.3549 31.8007 26.3549C31.5906 26.3549 31.3846 26.4393 31.2362 26.5875C31.0877 26.7366 31.0022 26.9414 31.0022 27.1517C31.0022 27.3613 31.0876 27.5661 31.2362 27.7151C31.3846 27.8633 31.5906 27.9478 31.8007 27.9478C32.0107 27.9478 32.2167 27.8633 32.3651 27.7151C32.5136 27.5661 32.5991 27.3613 32.5991 27.1517C32.5991 26.9414 32.5137 26.7366 32.3651 26.5875Z" fill="#2A0944"/>
<path d="M18.0689 37.3007C16.3959 37.3007 15.0348 38.6592 15.0348 40.3288C15.0348 41.9985 16.3959 43.357 18.0689 43.357C19.7419 43.357 21.103 41.9985 21.103 40.3288C21.103 38.6592 19.7419 37.3007 18.0689 37.3007ZM18.0689 41.7632C17.2765 41.7632 16.6317 41.1197 16.6317 40.3288C16.6317 39.5379 17.2765 38.8945 18.0689 38.8945C18.8614 38.8945 19.5061 39.5379 19.5061 40.3288C19.5061 41.1197 18.8614 41.7632 18.0689 41.7632Z" fill="#2A0944"/>
<path d="M46.8135 37.3007C45.1405 37.3007 43.7794 38.6592 43.7794 40.3288C43.7794 41.9985 45.1405 43.357 46.8135 43.357C48.4865 43.357 49.8476 41.9985 49.8476 40.3288C49.8476 38.6592 48.4865 37.3007 46.8135 37.3007ZM46.8135 41.7632C46.021 41.7632 45.3763 41.1197 45.3763 40.3288C45.3763 39.5379 46.021 38.8945 46.8135 38.8945C47.606 38.8945 48.2507 39.5379 48.2507 40.3288C48.2507 41.1197 47.606 41.7632 46.8135 41.7632Z" fill="#2A0944"/>
<path d="M48.569 47.3015H48.8883C51.0896 47.3015 52.8806 45.5141 52.8806 43.3171V38.587C52.8806 37.1947 52.1719 35.9271 50.9847 35.1961L50.585 34.9499H52.082C52.5229 34.9499 52.8805 34.5932 52.8805 34.1531V31.0171C52.8805 30.5769 52.5229 30.2202 52.082 30.2202H49.5669C49.2804 30.2202 49.016 30.3733 48.8737 30.6216L48.0691 32.0261L46.1903 24.3914C45.6967 22.3856 44.1265 20.8831 42.1813 20.43V15.8515C42.1813 14.2551 40.8799 12.9562 39.2803 12.9562H25.6002C24.0006 12.9562 22.6992 14.2551 22.6992 15.8515V20.43C20.754 20.883 19.1838 22.3856 18.6902 24.3914L16.8114 32.0261L16.0068 30.6215C15.8646 30.3733 15.6 30.2201 15.3136 30.2201H12.7984C12.3575 30.2201 12 30.5769 12 31.017V34.1531C12 34.5932 12.3575 34.9499 12.7984 34.9499H14.2955L13.8958 35.1961C12.7087 35.9271 12 37.1947 12 38.587V43.3171C12 45.5141 13.7909 47.3015 15.9922 47.3015H16.3116V48.4968C16.3116 49.1392 16.4943 49.7397 16.81 50.2499H15.9525C15.5116 50.2499 15.154 50.6067 15.154 51.0468C15.154 51.4869 15.5116 51.8437 15.9525 51.8437H30.2274C30.6683 51.8437 31.0259 51.4869 31.0259 51.0468C31.0259 50.6067 30.6683 50.2499 30.2274 50.2499H22.5202C22.8359 49.7397 23.0186 49.1392 23.0186 48.4968V47.3015H28.9271C29.368 47.3015 29.7255 46.9447 29.7255 46.5046C29.7255 46.0645 29.368 45.7077 28.9271 45.7077H15.9922C14.6714 45.7077 13.5969 44.6353 13.5969 43.3171V38.587C13.5969 37.7517 14.0221 36.9911 14.7344 36.5525L17.3366 34.9499H47.5439L50.1461 36.5524C50.8583 36.991 51.2836 37.7516 51.2836 38.5869V43.3171C51.2836 44.6353 50.209 45.7077 48.8883 45.7077H35.92C35.4791 45.7077 35.1215 46.0645 35.1215 46.5046C35.1215 46.9447 35.4791 47.3015 35.92 47.3015H41.8619V48.4968C41.8619 49.1392 42.0446 49.7397 42.3603 50.2499H37.2894C36.8485 50.2499 36.4909 50.6067 36.4909 51.0468C36.4909 51.4869 36.8485 51.8437 37.2894 51.8437H51.5643C52.0052 51.8437 52.3628 51.4869 52.3628 51.0468C52.3628 50.6067 52.0052 50.2499 51.5643 50.2499H48.0706C48.3863 49.7397 48.569 49.1392 48.569 48.4968V47.3015V47.3015ZM17.9085 47.3015H21.4217V48.4968C21.4217 49.4635 20.6337 50.2499 19.6651 50.2499C18.6965 50.2499 17.9085 49.4635 17.9085 48.4968V47.3015ZM13.5969 33.3562V31.8139H14.8503L15.7339 33.3562H13.5969ZM24.2961 15.8515C24.2961 15.1339 24.8811 14.55 25.6002 14.55H39.2803C39.9994 14.55 40.5844 15.1339 40.5844 15.8515V20.2875H24.2961V15.8515ZM26.7127 33.3562L30.3875 29.6887C30.6993 29.3775 30.6993 28.8729 30.3875 28.5617C30.0757 28.2505 29.5703 28.2505 29.2583 28.5617L24.5016 33.309C24.4864 33.3242 24.4725 33.3402 24.4589 33.3562H21.417L23.3424 25.5319C23.4096 25.2592 23.6529 25.0687 23.9342 25.0687H37.5122L32.6474 29.924C32.3356 30.2352 32.3356 30.7397 32.6474 31.0509C32.8034 31.2066 33.0077 31.2843 33.212 31.2843C33.4163 31.2843 33.6207 31.2065 33.7766 31.0509L39.7706 25.0687H40.9463C41.2276 25.0687 41.4709 25.2592 41.538 25.5319L43.4634 33.3562H26.7127ZM45.1077 33.3562L43.0887 25.1517C42.8458 24.1646 41.9648 23.475 40.9462 23.475H23.9343C22.9157 23.475 22.0347 24.1644 21.7918 25.1517L19.7727 33.3562H18.1283L20.2409 24.7716C20.6598 23.0698 22.1785 21.8812 23.9344 21.8812H40.9461C42.7019 21.8812 44.2207 23.0698 44.6396 24.7716L46.7522 33.3562H45.1077ZM49.1466 33.3562L50.0301 31.8139H51.2836V33.3562H49.1466ZM46.972 48.4968C46.972 49.4635 46.184 50.2499 45.2154 50.2499C44.2468 50.2499 43.4588 49.4635 43.4588 48.4968V47.3015H46.972V48.4968Z" fill="#2A0944"/>
<path d="M38.4462 15.3269C38.0053 15.3269 37.6478 15.6837 37.6478 16.1238V18.6339C37.6478 19.074 38.0053 19.4308 38.4462 19.4308C38.8871 19.4308 39.2447 19.074 39.2447 18.6339V16.1238C39.2447 15.6837 38.8871 15.3269 38.4462 15.3269Z" fill="#2A0944"/>
<path d="M28.2644 15.3269H26.4545C26.0136 15.3269 25.6561 15.6837 25.6561 16.1238C25.6561 16.5639 26.0136 16.9207 26.4545 16.9207H26.561V18.6339C26.561 19.074 26.9186 19.4308 27.3595 19.4308C27.8004 19.4308 28.1579 19.074 28.1579 18.6339V16.9207H28.2644C28.7053 16.9207 29.0628 16.5639 29.0628 16.1238C29.0628 15.6837 28.7053 15.3269 28.2644 15.3269Z" fill="#2A0944"/>
<path d="M36.0625 17.4188L36.7182 16.6344C37.0008 16.2964 36.9554 15.7939 36.6168 15.512C36.2784 15.2301 35.7749 15.2753 35.4922 15.6133L35.0227 16.175L34.5531 15.6133C34.2706 15.2752 33.7669 15.2301 33.4286 15.512C33.0899 15.794 33.0444 16.2964 33.3271 16.6344L33.9828 17.4188L33.327 18.2031C33.0444 18.5411 33.0899 19.0435 33.4285 19.3255C33.5778 19.4499 33.7592 19.5105 33.9396 19.5105C34.1681 19.5105 34.3951 19.413 34.553 19.2242L35.0226 18.6624L35.4921 19.2242C35.6501 19.4131 35.8769 19.5105 36.1056 19.5105C36.286 19.5105 36.4674 19.4498 36.6167 19.3255C36.9553 19.0435 37.0008 18.5411 36.7182 18.2031L36.0625 17.4188Z" fill="#2A0944"/>
<path d="M32.6825 18.3952L31.5513 15.8053C31.4243 15.5148 31.1369 15.3269 30.8193 15.3269C30.5017 15.3269 30.2143 15.5147 30.0874 15.8053L28.9562 18.3952C28.78 18.7986 28.9648 19.2682 29.3691 19.4441C29.7735 19.62 30.2439 19.4354 30.4201 19.0321L30.8193 18.118L31.2186 19.0321C31.3496 19.3318 31.6429 19.5107 31.951 19.5107C32.0575 19.5107 32.1657 19.4892 32.2696 19.4441C32.6739 19.2683 32.8587 18.7986 32.6825 18.3952Z" fill="#2A0944"/>
</g>
<path d="M26.2211 73.8926H23.6078V81H21.85V73.8926H19.2719V72.4688H26.2211V73.8926ZM30.2471 81C30.1689 80.8477 30.1123 80.6582 30.0771 80.4316C29.667 80.8887 29.1338 81.1172 28.4775 81.1172C27.8564 81.1172 27.3408 80.9375 26.9307 80.5781C26.5244 80.2188 26.3213 79.7656 26.3213 79.2188C26.3213 78.5469 26.5693 78.0312 27.0654 77.6719C27.5654 77.3125 28.2861 77.1309 29.2275 77.127H30.0068V76.7637C30.0068 76.4707 29.9307 76.2363 29.7783 76.0605C29.6299 75.8848 29.3936 75.7969 29.0693 75.7969C28.7842 75.7969 28.5596 75.8652 28.3955 76.002C28.2353 76.1387 28.1553 76.3262 28.1553 76.5645H26.4619C26.4619 76.1973 26.5752 75.8574 26.8018 75.5449C27.0283 75.2324 27.3486 74.9883 27.7627 74.8125C28.1768 74.6328 28.6416 74.543 29.1572 74.543C29.9385 74.543 30.5576 74.7402 31.0146 75.1348C31.4756 75.5254 31.7061 76.0762 31.7061 76.7871V79.5352C31.71 80.1367 31.7939 80.5918 31.958 80.9004V81H30.2471ZM28.8467 79.8223C29.0967 79.8223 29.3271 79.7676 29.5381 79.6582C29.749 79.5449 29.9053 79.3945 30.0068 79.207V78.1172H29.374C28.5264 78.1172 28.0752 78.4102 28.0205 78.9961L28.0146 79.0957C28.0146 79.3066 28.0889 79.4805 28.2373 79.6172C28.3857 79.7539 28.5889 79.8223 28.8467 79.8223ZM35.8609 76.5527L36.9273 74.6602H38.7378L36.9332 77.7656L38.814 81H36.9976L35.8668 79.0078L34.7418 81H32.9195L34.8003 77.7656L33.0015 74.6602H34.8179L35.8609 76.5527ZM41.7794 81H40.0802V74.6602H41.7794V81ZM39.9806 73.0195C39.9806 72.7656 40.0646 72.5566 40.2325 72.3926C40.4044 72.2285 40.6368 72.1465 40.9298 72.1465C41.2189 72.1465 41.4493 72.2285 41.6212 72.3926C41.7931 72.5566 41.879 72.7656 41.879 73.0195C41.879 73.2773 41.7911 73.4883 41.6153 73.6523C41.4435 73.8164 41.215 73.8984 40.9298 73.8984C40.6446 73.8984 40.4142 73.8164 40.2384 73.6523C40.0665 73.4883 39.9806 73.2773 39.9806 73.0195Z" fill="#2A0944"/>
<defs>
<clipPath id="clip0_154_689">
<rect width="40.8806" height="40.8" fill="white" transform="translate(12 12)"/>
</clipPath>
</defs>
</svg>
