<svg width="65" height="91" viewBox="0 0 65 91" fill="none" xmlns="http://www.w3.org/2000/svg">
<rect x="0.1" y="0.1" width="64.8" height="64.8" rx="4.9" fill="white" stroke="#2A0944" stroke-width="0.2"/>
<g clip-path="url(#clip0_154_726)">
<path d="M54.5055 52.0755L47.497 38.5845L48.7696 37.5198C48.96 37.3604 49.07 37.1251 49.07 36.877V16.6422C49.07 13.2004 46.2696 10.4 42.8277 10.4H23.4725C20.0306 10.4 17.2302 13.2004 17.2302 16.6422V19.533C17.2302 19.9954 17.6056 20.3709 18.0681 20.3709C18.5309 20.3709 18.906 19.9954 18.906 19.533V16.6422C18.906 14.1243 20.9545 12.0757 23.4725 12.0757H42.8277C45.3457 12.0757 47.3942 14.1243 47.3942 16.6422V36.4855L40.8181 41.9881H38.4288V40.7732C38.4288 40.3107 38.0537 39.9353 37.5909 39.9353C37.1281 39.9353 36.753 40.3107 36.753 40.7732V41.9881H34.2079V40.7732C34.2079 40.3107 33.8328 39.9353 33.3704 39.9353C32.9076 39.9353 32.5325 40.3107 32.5325 40.7732V41.9881H29.9874V40.7732C29.9874 40.3107 29.6123 39.9353 29.1495 39.9353C28.687 39.9353 28.3116 40.3107 28.3116 40.7732V41.9881H25.4821L18.906 36.4855V27.4091C18.906 26.9463 18.5309 26.5713 18.0681 26.5713C17.6056 26.5713 17.2302 26.9463 17.2302 27.4091V36.8773C17.2302 37.1254 17.3401 37.3607 17.5306 37.5198L18.8032 38.5845L11.7947 52.0755C11.5813 52.486 11.7413 52.992 12.1518 53.2054C12.2755 53.2695 12.4074 53.2996 12.5373 53.2996C12.8401 53.2996 13.1327 53.1353 13.2816 52.848L20.1193 39.6859L21.2773 40.6547L16.8669 52.1619C16.7013 52.594 16.9173 53.0784 17.3493 53.2443C17.4482 53.282 17.5493 53.3 17.6491 53.3C17.9859 53.3 18.3037 53.0951 18.4317 52.7616L19.3174 50.4508H40.6073C41.0698 50.4508 41.4452 50.0757 41.4452 49.6129C41.4452 49.1501 41.0698 48.775 40.6073 48.775H19.9595L20.605 47.0914C20.6406 47.096 20.6763 47.0992 20.7133 47.0992H45.5577C45.6042 47.0992 45.6494 47.0947 45.6936 47.0875L47.8685 52.7616C47.9965 53.0951 48.3139 53.3 48.6511 53.3C48.7509 53.3 48.852 53.282 48.9509 53.2443C49.3829 53.0784 49.5989 52.594 49.4333 52.1619L45.0229 40.6547L46.1809 39.6859L53.0186 52.848C53.1678 53.1353 53.4601 53.2996 53.7629 53.2996C53.8928 53.2996 54.025 53.2695 54.1484 53.2054C54.5588 52.992 54.7189 52.4863 54.5055 52.0755ZM45.056 45.4235H21.2442L22.6362 41.7917L24.6403 43.4688C24.7908 43.5948 24.9813 43.6639 25.178 43.6639H41.1225C41.3192 43.6639 41.5094 43.5948 41.6599 43.4688L43.664 41.7917L45.056 45.4235Z" fill="#2A0944"/>
<path d="M44.0426 48.775C43.822 48.775 43.606 48.8647 43.4502 49.0205C43.2944 49.1766 43.2047 49.3926 43.2047 49.6129C43.2047 49.8335 43.294 50.0495 43.4502 50.2053C43.606 50.3611 43.822 50.4508 44.0426 50.4508C44.2629 50.4508 44.4789 50.3611 44.6347 50.2053C44.7908 50.0495 44.8805 49.8335 44.8805 49.6129C44.8805 49.3926 44.7908 49.1766 44.6347 49.0205C44.4789 48.8647 44.2629 48.775 44.0426 48.775Z" fill="#2A0944"/>
<path d="M45.048 18.9465C45.048 17.5604 43.9205 16.4328 42.5344 16.4328H23.7656C22.3798 16.4328 21.252 17.5604 21.252 18.9465V26.3199C21.252 27.706 22.3798 28.8336 23.7656 28.8336H42.5344C43.9205 28.8336 45.048 27.706 45.048 26.3199V18.9465ZM22.9277 26.3199V18.9465C22.9277 18.4843 23.3038 18.1086 23.7656 18.1086H32.3121V27.1578H23.7656C23.3038 27.1578 22.9277 26.7817 22.9277 26.3199ZM43.3723 26.3199C43.3723 26.7817 42.9962 27.1578 42.5344 27.1578H33.9879V18.1086H42.5344C42.9962 18.1086 43.3723 18.4843 43.3723 18.9465V26.3199Z" fill="#2A0944"/>
<path d="M24.073 36.7097C25.6437 36.7097 26.9218 35.4316 26.9218 33.8609C26.9218 32.2899 25.6437 31.0121 24.073 31.0121C22.5023 31.0121 21.2242 32.2899 21.2242 33.8609C21.2242 35.4316 22.5023 36.7097 24.073 36.7097ZM24.073 32.6879C24.7197 32.6879 25.246 33.2138 25.246 33.8609C25.246 34.5077 24.7197 35.034 24.073 35.034C23.4262 35.034 22.8999 34.5077 22.8999 33.8609C22.8999 33.2138 23.4262 32.6879 24.073 32.6879Z" fill="#2A0944"/>
<path d="M42.1992 31.0121C40.6282 31.0121 39.3504 32.2899 39.3504 33.8609C39.3504 35.4316 40.6282 36.7097 42.1992 36.7097C43.7699 36.7097 45.0481 35.4316 45.0481 33.8609C45.0481 32.2899 43.7699 31.0121 42.1992 31.0121ZM42.1992 35.034C41.5522 35.034 41.0262 34.5077 41.0262 33.8609C41.0262 33.2138 41.5522 32.6879 42.1992 32.6879C42.846 32.6879 43.3723 33.2138 43.3723 33.8609C43.3723 34.5077 42.846 35.034 42.1992 35.034Z" fill="#2A0944"/>
<path d="M37.5908 31.0225H29.1494C28.6869 31.0225 28.3115 31.3976 28.3115 31.8604C28.3115 32.3232 28.6869 32.6983 29.1494 32.6983H37.5908C38.0536 32.6983 38.4287 32.3232 38.4287 31.8604C38.4287 31.3976 38.0536 31.0225 37.5908 31.0225Z" fill="#2A0944"/>
<path d="M37.5908 35.0339H29.1494C28.6869 35.0339 28.3115 35.409 28.3115 35.8718C28.3115 36.3343 28.6869 36.7097 29.1494 36.7097H37.5908C38.0536 36.7097 38.4287 36.3343 38.4287 35.8718C38.4287 35.409 38.0536 35.0339 37.5908 35.0339Z" fill="#2A0944"/>
<path d="M18.068 24.1689C18.2886 24.1689 18.5046 24.0802 18.6604 23.9234C18.8162 23.7676 18.9059 23.5522 18.9059 23.331C18.9059 23.1107 18.8162 22.8947 18.6604 22.7389C18.5046 22.5828 18.2886 22.4931 18.068 22.4931C17.8477 22.4931 17.6317 22.5828 17.4756 22.7389C17.3198 22.8947 17.2301 23.1107 17.2301 23.331C17.2301 23.5522 17.3198 23.7676 17.4756 23.9234C17.6317 24.0802 17.8477 24.1689 18.068 24.1689Z" fill="#2A0944"/>
</g>
<path d="M25.1836 73.8926H22.5703V81H20.8125V73.8926H18.2344V72.4688H25.1836V73.8926ZM29.6959 76.248C29.4654 76.2168 29.2623 76.2012 29.0865 76.2012C28.4459 76.2012 28.0259 76.418 27.8267 76.8516V81H26.1334V74.6602H27.733L27.7798 75.416C28.1197 74.834 28.5904 74.543 29.192 74.543C29.3795 74.543 29.5552 74.5684 29.7193 74.6191L29.6959 76.248ZM34.4542 81C34.3761 80.8477 34.3195 80.6582 34.2843 80.4316C33.8741 80.8887 33.3409 81.1172 32.6847 81.1172C32.0636 81.1172 31.548 80.9375 31.1378 80.5781C30.7316 80.2188 30.5284 79.7656 30.5284 79.2188C30.5284 78.5469 30.7765 78.0312 31.2726 77.6719C31.7726 77.3125 32.4933 77.1309 33.4347 77.127H34.214V76.7637C34.214 76.4707 34.1378 76.2363 33.9855 76.0605C33.837 75.8848 33.6007 75.7969 33.2765 75.7969C32.9913 75.7969 32.7667 75.8652 32.6027 76.002C32.4425 76.1387 32.3624 76.3262 32.3624 76.5645H30.6691C30.6691 76.1973 30.7823 75.8574 31.0089 75.5449C31.2355 75.2324 31.5558 74.9883 31.9698 74.8125C32.3839 74.6328 32.8488 74.543 33.3644 74.543C34.1456 74.543 34.7648 74.7402 35.2218 75.1348C35.6827 75.5254 35.9132 76.0762 35.9132 76.7871V79.5352C35.9171 80.1367 36.0011 80.5918 36.1652 80.9004V81H34.4542ZM33.0538 79.8223C33.3038 79.8223 33.5343 79.7676 33.7452 79.6582C33.9562 79.5449 34.1124 79.3945 34.214 79.207V78.1172H33.5812C32.7335 78.1172 32.2823 78.4102 32.2277 78.9961L32.2218 79.0957C32.2218 79.3066 32.296 79.4805 32.4445 79.6172C32.5929 79.7539 32.796 79.8223 33.0538 79.8223ZM39.4411 81H37.7419V74.6602H39.4411V81ZM37.6423 73.0195C37.6423 72.7656 37.7262 72.5566 37.8942 72.3926C38.0661 72.2285 38.2985 72.1465 38.5915 72.1465C38.8805 72.1465 39.111 72.2285 39.2829 72.3926C39.4548 72.5566 39.5407 72.7656 39.5407 73.0195C39.5407 73.2773 39.4528 73.4883 39.277 73.6523C39.1052 73.8164 38.8766 73.8984 38.5915 73.8984C38.3063 73.8984 38.0759 73.8164 37.9001 73.6523C37.7282 73.4883 37.6423 73.2773 37.6423 73.0195ZM42.8401 74.6602L42.8928 75.3926C43.3459 74.8262 43.9534 74.543 44.7151 74.543C45.387 74.543 45.887 74.7402 46.2151 75.1348C46.5432 75.5293 46.7112 76.1191 46.719 76.9043V81H45.0256V76.9453C45.0256 76.5859 44.9475 76.3262 44.7913 76.166C44.635 76.002 44.3752 75.9199 44.012 75.9199C43.5354 75.9199 43.178 76.123 42.9397 76.5293V81H41.2463V74.6602H42.8401Z" fill="#2A0944"/>
<defs>
<clipPath id="clip0_154_726">
<rect width="42.9" height="42.9" fill="white" transform="translate(11.7 10.4)"/>
</clipPath>
</defs>
</svg>
