<svg width="65" height="97" viewBox="0 0 65 97" fill="none" xmlns="http://www.w3.org/2000/svg">
<rect x="0.1" y="0.1" width="64.8" height="64.8" rx="4.9" fill="white" stroke="#2A0944" stroke-width="0.2"/>
<path d="M46.875 60.6719H17.625C17.3826 60.6719 17.1501 60.5756 16.9787 60.4042C16.8072 60.2327 16.7109 60.0002 16.7109 59.7578C16.7109 59.5154 16.8072 59.2829 16.9787 59.1115C17.1501 58.9401 17.3826 58.8438 17.625 58.8438H46.875C47.1174 58.8438 47.3499 58.9401 47.5213 59.1115C47.6928 59.2829 47.7891 59.5154 47.7891 59.7578C47.7891 60.0002 47.6928 60.2327 47.5213 60.4042C47.3499 60.5756 47.1174 60.6719 46.875 60.6719Z" fill="#2A0944"/>
<path d="M26.7656 7.65619H37.7344C37.9768 7.65619 38.2093 7.55989 38.3807 7.38847C38.5521 7.21705 38.6484 6.98455 38.6484 6.74213C38.6484 6.4997 38.5521 6.26721 38.3807 6.09579C38.2093 5.92437 37.9768 5.82806 37.7344 5.82806H26.7656C26.5232 5.82806 26.2907 5.92437 26.1193 6.09579C25.9479 6.26721 25.8516 6.4997 25.8516 6.74213C25.8516 6.98455 25.9479 7.21705 26.1193 7.38847C26.2907 7.55989 26.5232 7.65619 26.7656 7.65619Z" fill="#2A0944"/>
<path d="M38.6484 9.48438C38.6484 9.24195 38.5521 9.00946 38.3807 8.83804C38.2093 8.66662 37.9768 8.57031 37.7344 8.57031H26.7656C26.5232 8.57031 26.2907 8.66662 26.1193 8.83804C25.9479 9.00946 25.8516 9.24195 25.8516 9.48438C25.8516 9.7268 25.9479 9.9593 26.1193 10.1307C26.2907 10.3021 26.5232 10.3984 26.7656 10.3984H37.7344C37.9768 10.3984 38.2093 10.3021 38.3807 10.1307C38.5521 9.9593 38.6484 9.7268 38.6484 9.48438Z" fill="#2A0944"/>
<path d="M23.1094 33.25H41.3906C41.633 33.25 41.8655 33.1537 42.037 32.9823C42.2084 32.8109 42.3047 32.5784 42.3047 32.3359V21.3672C42.3047 21.1248 42.2084 20.8923 42.037 20.7208C41.8655 20.5494 41.633 20.4531 41.3906 20.4531H23.1094C22.867 20.4531 22.6345 20.5494 22.463 20.7208C22.2916 20.8923 22.1953 21.1248 22.1953 21.3672V32.3359C22.1953 32.5784 22.2916 32.8109 22.463 32.9823C22.6345 33.1537 22.867 33.25 23.1094 33.25ZM24.0234 22.2812H40.4766V31.4219H24.0234V22.2812Z" fill="#2A0944"/>
<path d="M38.6484 42.3906C39.3716 42.3906 40.0785 42.1762 40.6797 41.7744C41.281 41.3727 41.7496 40.8017 42.0264 40.1336C42.3031 39.4655 42.3755 38.7303 42.2344 38.0211C42.0934 37.3118 41.7451 36.6604 41.2338 36.149C40.7225 35.6377 40.071 35.2895 39.3617 35.1484C38.6525 35.0073 37.9173 35.0797 37.2493 35.3564C36.5812 35.6332 36.0101 36.1018 35.6084 36.7031C35.2066 37.3043 34.9922 38.0112 34.9922 38.7344C34.9922 39.7041 35.3774 40.6341 36.0631 41.3197C36.7488 42.0054 37.6787 42.3906 38.6484 42.3906ZM38.6484 36.9063C39.01 36.9063 39.3635 37.0135 39.6641 37.2143C39.9647 37.4152 40.199 37.7007 40.3374 38.0348C40.4758 38.3688 40.512 38.7364 40.4414 39.091C40.3709 39.4457 40.1968 39.7714 39.9411 40.0271C39.6855 40.2827 39.3597 40.4568 39.0051 40.5274C38.6505 40.5979 38.2829 40.5617 37.9488 40.4233C37.6148 40.285 37.3293 40.0507 37.1284 39.75C36.9275 39.4494 36.8203 39.0959 36.8203 38.7344C36.8203 38.2495 37.0129 37.7845 37.3558 37.4417C37.6986 37.0989 38.1636 36.9063 38.6484 36.9063Z" fill="#2A0944"/>
<path d="M25.8516 42.3906C26.5747 42.3906 27.2816 42.1762 27.8829 41.7744C28.4841 41.3727 28.9528 40.8017 29.2295 40.1336C29.5062 39.4655 29.5786 38.7303 29.4376 38.0211C29.2965 37.3118 28.9483 36.6604 28.4369 36.149C27.9256 35.6377 27.2741 35.2895 26.5649 35.1484C25.8556 35.0073 25.1205 35.0797 24.4524 35.3564C23.7843 35.6332 23.2133 36.1018 22.8115 36.7031C22.4097 37.3043 22.1953 38.0112 22.1953 38.7344C22.1953 39.7041 22.5805 40.6341 23.2662 41.3197C23.9519 42.0054 24.8819 42.3906 25.8516 42.3906ZM25.8516 36.9063C26.2131 36.9063 26.5666 37.0135 26.8672 37.2143C27.1679 37.4152 27.4022 37.7007 27.5405 38.0348C27.6789 38.3688 27.7151 38.7364 27.6446 39.091C27.574 39.4457 27.3999 39.7714 27.1442 40.0271C26.8886 40.2827 26.5628 40.4568 26.2082 40.5274C25.8536 40.5979 25.486 40.5617 25.152 40.4233C24.8179 40.285 24.5324 40.0507 24.3315 39.75C24.1307 39.4494 24.0234 39.0959 24.0234 38.7344C24.0234 38.2495 24.216 37.7845 24.5589 37.4417C24.9017 37.0989 25.3667 36.9063 25.8516 36.9063Z" fill="#2A0944"/>
<path d="M42.8531 45.7864C43.7565 45.4827 44.542 44.9037 45.0994 44.1307C45.6568 43.3577 45.9581 42.4296 45.961 41.4766V21.3672C45.9595 20.1555 45.4775 18.9939 44.6207 18.1371C43.7639 17.2803 42.6023 16.7983 41.3906 16.7969H34.9922V15.8828C34.9896 15.3121 34.809 14.7564 34.4756 14.2932C34.1421 13.83 33.6725 13.4823 33.1321 13.2988C33.1479 13.2472 33.1586 13.1943 33.1641 13.1406V11.3125C33.1641 11.0701 33.0678 10.8376 32.8963 10.6662C32.7249 10.4947 32.4924 10.3984 32.25 10.3984C32.0076 10.3984 31.7751 10.4947 31.6037 10.6662C31.4322 10.8376 31.3359 11.0701 31.3359 11.3125V13.1406C31.3414 13.1943 31.3521 13.2472 31.3679 13.2988C30.8275 13.4823 30.3579 13.83 30.0244 14.2932C29.691 14.7564 29.5104 15.3121 29.5078 15.8828V16.7969H23.1094C21.8977 16.7983 20.7361 17.2803 19.8793 18.1371C19.0225 18.9939 18.5405 20.1555 18.5391 21.3672V41.4766C18.5422 42.4301 18.8442 43.3587 19.4025 44.1318C19.9607 44.9048 20.7473 45.4835 21.6514 45.7864L19.5838 49.2324C19.5005 49.3711 19.4555 49.5294 19.4534 49.6911C19.4513 49.8529 19.4921 50.0124 19.5718 50.1532C19.6514 50.294 19.767 50.4111 19.9068 50.4927C20.0465 50.5742 20.2054 50.6172 20.3672 50.6172H24.0234C24.2658 50.6171 24.4983 50.5208 24.6697 50.3494L26.23 48.7891H38.27L39.8303 50.3494C40.0017 50.5208 40.2342 50.6171 40.4766 50.6172H44.1328C44.2946 50.6172 44.4535 50.5742 44.5932 50.4927C44.733 50.4111 44.8486 50.294 44.9282 50.1532C45.0079 50.0124 45.0488 49.8529 45.0466 49.6911C45.0445 49.5294 44.9995 49.3711 44.9162 49.2324L42.8531 45.7864ZM31.3359 15.8828C31.3359 15.6404 31.4322 15.4079 31.6037 15.2365C31.7751 15.0651 32.0076 14.9687 32.25 14.9687C32.4924 14.9687 32.7249 15.0651 32.8963 15.2365C33.0678 15.4079 33.1641 15.6404 33.1641 15.8828V16.7969H31.3359V15.8828ZM20.3672 41.4766V21.3672C20.3672 20.6399 20.6561 19.9424 21.1704 19.4282C21.6846 18.9139 22.3821 18.625 23.1094 18.625H41.3906C42.1179 18.625 42.8154 18.9139 43.3297 19.4282C43.8439 19.9424 44.1328 20.6399 44.1328 21.3672V41.4766C44.1328 42.2038 43.8439 42.9013 43.3297 43.4156C42.8154 43.9298 42.1179 44.2187 41.3906 44.2187H23.1094C22.3821 44.2187 21.6846 43.9298 21.1704 43.4156C20.6561 42.9013 20.3672 42.2038 20.3672 41.4766ZM40.855 48.7891L39.2947 47.2288C39.1233 47.0573 38.8909 46.961 38.6484 46.9609H25.8516C25.6092 46.961 25.3767 47.0573 25.2053 47.2288L23.645 48.7891H21.9823L23.6277 46.0469H40.8733L42.5186 48.7891H40.855Z" fill="#2A0944"/>
<path d="M38.6484 52.4453C38.8909 52.4453 39.1234 52.349 39.2948 52.1776C39.4662 52.0062 39.5625 51.7737 39.5625 51.5313C39.5625 51.2888 39.4662 51.0563 39.2948 50.8849C39.1234 50.7135 38.8909 50.6172 38.6484 50.6172H25.8516C25.6091 50.6172 25.3766 50.7135 25.2052 50.8849C25.0338 51.0563 24.9375 51.2888 24.9375 51.5313C24.9375 51.7737 25.0338 52.0062 25.2052 52.1776C25.3766 52.349 25.6091 52.4453 25.8516 52.4453H38.6484Z" fill="#2A0944"/>
<path d="M42.3047 54.2734H22.1953C21.9529 54.2734 21.7204 54.3697 21.549 54.5412C21.3776 54.7126 21.2812 54.9451 21.2812 55.1875C21.2812 55.4299 21.3776 55.6624 21.549 55.8338C21.7204 56.0053 21.9529 56.1016 22.1953 56.1016H42.3047C42.5471 56.1016 42.7796 56.0053 42.951 55.8338C43.1224 55.6624 43.2188 55.4299 43.2188 55.1875C43.2188 54.9451 43.1224 54.7126 42.951 54.5412C42.7796 54.3697 42.5471 54.2734 42.3047 54.2734Z" fill="#2A0944"/>
<path d="M46.6922 51.8969C46.6202 51.8008 46.5299 51.7199 46.4266 51.6588C46.3234 51.5976 46.209 51.5574 46.0902 51.5404C45.9714 51.5235 45.8504 51.5301 45.7341 51.5598C45.6178 51.5896 45.5085 51.642 45.4125 51.7141C45.3165 51.7861 45.2356 51.8763 45.1744 51.9796C45.1133 52.0829 45.073 52.1972 45.0561 52.316C45.0391 52.4349 45.0457 52.5559 45.0755 52.6722C45.1053 52.7884 45.1577 52.8977 45.2297 52.9937L50.7141 60.3062C50.8595 60.5002 51.0761 60.6284 51.316 60.6627C51.556 60.697 51.7998 60.6345 51.9937 60.4891C52.1877 60.3436 52.3159 60.1271 52.3502 59.8871C52.3845 59.6471 52.322 59.4033 52.1766 59.2094L46.6922 51.8969Z" fill="#2A0944"/>
<path d="M17.8078 51.8969L12.3234 59.2094C12.178 59.4033 12.1155 59.6471 12.1498 59.8871C12.1841 60.1271 12.3123 60.3436 12.5062 60.489C12.7002 60.6345 12.944 60.697 13.184 60.6627C13.4239 60.6284 13.6405 60.5002 13.7859 60.3062L19.2703 52.9937C19.4158 52.7998 19.4782 52.556 19.4439 52.316C19.4097 52.0761 19.2814 51.8595 19.0875 51.7141C18.8936 51.5686 18.6498 51.5062 18.4098 51.5404C18.1698 51.5747 17.9533 51.7029 17.8078 51.8969Z" fill="#2A0944"/>
<path d="M30.4219 39.6484H34.0781C34.3206 39.6484 34.553 39.5521 34.7245 39.3807C34.8959 39.2093 34.9922 38.9768 34.9922 38.7344C34.9922 38.492 34.8959 38.2595 34.7245 38.088C34.553 37.9166 34.3206 37.8203 34.0781 37.8203H30.4219C30.1795 37.8203 29.947 37.9166 29.7755 38.088C29.6041 38.2595 29.5078 38.492 29.5078 38.7344C29.5078 38.9768 29.6041 39.2093 29.7755 39.3807C29.947 39.5521 30.1795 39.6484 30.4219 39.6484Z" fill="#2A0944"/>
<path d="M38.6484 23.1953H35.9063C35.6638 23.1953 35.4313 23.2916 35.2599 23.463C35.0885 23.6345 34.9922 23.867 34.9922 24.1094C34.9922 24.3518 35.0885 24.5843 35.2599 24.7557C35.4313 24.9271 35.6638 25.0234 35.9063 25.0234H37.7344V26.8516C37.7344 27.094 37.8307 27.3265 38.0021 27.4979C38.1735 27.6693 38.406 27.7656 38.6484 27.7656C38.8909 27.7656 39.1234 27.6693 39.2948 27.4979C39.4662 27.3265 39.5625 27.094 39.5625 26.8516V24.1094C39.5625 23.867 39.4662 23.6345 39.2948 23.463C39.1234 23.2916 38.8909 23.1953 38.6484 23.1953Z" fill="#2A0944"/>
<path d="M59.6024 13.7046C59.5332 13.5376 59.416 13.3949 59.2657 13.2945C59.1153 13.1941 58.9386 13.1406 58.7578 13.1406H57.0513L57.8364 6.85551C57.8602 6.6664 57.8242 6.4746 57.7336 6.30694C57.6429 6.13927 57.5022 6.00414 57.3309 5.92044C57.1597 5.83674 56.9666 5.80865 56.7786 5.84012C56.5906 5.87158 56.4172 5.96102 56.2825 6.09592L48.97 13.4084C48.8422 13.5363 48.7551 13.6992 48.7199 13.8766C48.6847 14.054 48.7029 14.2378 48.7722 14.4049C48.8414 14.5719 48.9587 14.7146 49.1091 14.815C49.2595 14.9154 49.4364 14.9689 49.6172 14.9687H52.1025L50.5587 21.145C50.5102 21.339 50.5266 21.5434 50.6053 21.7271C50.6841 21.9108 50.821 22.0637 50.9949 22.1622C51.1688 22.2607 51.3702 22.2995 51.5683 22.2726C51.7664 22.2458 51.9502 22.1547 52.0916 22.0134L59.4041 14.7009C59.532 14.5731 59.6191 14.4102 59.6544 14.2328C59.6897 14.0555 59.6716 13.8716 59.6024 13.7046ZM53.1327 18.3873L54.1601 14.274C54.1934 14.1394 54.1956 13.999 54.1666 13.8635C54.1376 13.7279 54.0781 13.6007 53.9927 13.4915C53.9073 13.3823 53.7981 13.2939 53.6735 13.2331C53.5489 13.1724 53.4121 13.1407 53.2734 13.1406H51.8237L55.6921 9.27229L55.1089 13.9413C55.0928 14.0699 55.1043 14.2004 55.1425 14.3243C55.1807 14.4481 55.2448 14.5624 55.3306 14.6595C55.4163 14.7567 55.5217 14.8345 55.6398 14.8878C55.758 14.9411 55.886 14.9687 56.0156 14.9687H56.5513L53.1327 18.3873Z" fill="#2A0944"/>
<path d="M54.1875 32.3359H52.3594V30.5078C52.3594 30.2654 52.2631 30.0329 52.0917 29.8615C51.9202 29.6901 51.6877 29.5938 51.4453 29.5938C51.2029 29.5938 50.9704 29.6901 50.799 29.8615C50.6276 30.0329 50.5313 30.2654 50.5313 30.5078V32.3359H48.7031C48.4607 32.3359 48.2282 32.4322 48.0568 32.6037C47.8854 32.7751 47.7891 33.0076 47.7891 33.25C47.7891 33.4924 47.8854 33.7249 48.0568 33.8963C48.2282 34.0678 48.4607 34.1641 48.7031 34.1641H50.5313V35.9922C50.5313 36.2346 50.6276 36.4671 50.799 36.6385C50.9704 36.8099 51.2029 36.9062 51.4453 36.9062C51.6877 36.9062 51.9202 36.8099 52.0917 36.6385C52.2631 36.4671 52.3594 36.2346 52.3594 35.9922V34.1641H54.1875C54.4299 34.1641 54.6624 34.0678 54.8339 33.8963C55.0053 33.7249 55.1016 33.4924 55.1016 33.25C55.1016 33.0076 55.0053 32.7751 54.8339 32.6037C54.6624 32.4322 54.4299 32.3359 54.1875 32.3359Z" fill="#2A0944"/>
<path d="M24.7905 73.8926H22.1772V81H20.4194V73.8926H17.8413V72.4688H24.7905V73.8926ZM29.3028 76.248C29.0723 76.2168 28.8692 76.2012 28.6934 76.2012C28.0528 76.2012 27.6329 76.418 27.4336 76.8516V81H25.7403V74.6602H27.3399L27.3868 75.416C27.7266 74.834 28.1973 74.543 28.7989 74.543C28.9864 74.543 29.1622 74.5684 29.3262 74.6191L29.3028 76.248ZM34.0611 81C33.983 80.8477 33.9264 80.6582 33.8912 80.4316C33.4811 80.8887 32.9479 81.1172 32.2916 81.1172C31.6705 81.1172 31.1549 80.9375 30.7447 80.5781C30.3385 80.2188 30.1354 79.7656 30.1354 79.2188C30.1354 78.5469 30.3834 78.0312 30.8795 77.6719C31.3795 77.3125 32.1002 77.1309 33.0416 77.127H33.8209V76.7637C33.8209 76.4707 33.7447 76.2363 33.5924 76.0605C33.444 75.8848 33.2076 75.7969 32.8834 75.7969C32.5983 75.7969 32.3736 75.8652 32.2096 76.002C32.0494 76.1387 31.9693 76.3262 31.9693 76.5645H30.276C30.276 76.1973 30.3893 75.8574 30.6158 75.5449C30.8424 75.2324 31.1627 74.9883 31.5768 74.8125C31.9908 74.6328 32.4557 74.543 32.9713 74.543C33.7526 74.543 34.3717 74.7402 34.8287 75.1348C35.2897 75.5254 35.5201 76.0762 35.5201 76.7871V79.5352C35.524 80.1367 35.608 80.5918 35.7721 80.9004V81H34.0611ZM32.6608 79.8223C32.9108 79.8223 33.1412 79.7676 33.3522 79.6582C33.5631 79.5449 33.7193 79.3945 33.8209 79.207V78.1172H33.1881C32.3404 78.1172 31.8893 78.4102 31.8346 78.9961L31.8287 79.0957C31.8287 79.3066 31.9029 79.4805 32.0514 79.6172C32.1998 79.7539 32.4029 79.8223 32.6608 79.8223ZM38.8488 74.6602L38.9015 75.3691C39.3508 74.8184 39.9582 74.543 40.7238 74.543C41.5402 74.543 42.1008 74.8652 42.4054 75.5098C42.8508 74.8652 43.4855 74.543 44.3097 74.543C44.9972 74.543 45.509 74.7441 45.8449 75.1465C46.1808 75.5449 46.3488 76.1465 46.3488 76.9512V81H44.6496V76.957C44.6496 76.5977 44.5793 76.3359 44.4386 76.1719C44.298 76.0039 44.05 75.9199 43.6945 75.9199C43.1867 75.9199 42.8351 76.1621 42.6398 76.6465L42.6457 81H40.9523V76.9629C40.9523 76.5957 40.8801 76.3301 40.7355 76.166C40.591 76.002 40.3449 75.9199 39.9972 75.9199C39.5168 75.9199 39.1691 76.1191 38.9543 76.5176V81H37.2609V74.6602H38.8488Z" fill="#2A0944"/>
</svg>
